<mxfile host="app.diagrams.net" modified="2023-03-16T12:35:33.738Z" agent="5.0 (iPhone; CPU iPhone OS 16_3_1 like Mac OS X) AppleWebKit/605.1.15 (KHTML, like Gecko) Version/16.3 Mobile/15E148 Safari/604.1" etag="gPvR_Qp0ggfLxnLn8Fnl" version="21.0.6" type="github">
  <diagram name="第 1 页" id="e6vYaWK0C8Xtis-UxjeE">
    <mxGraphModel dx="330" dy="630" grid="0" gridSize="10" guides="1" tooltips="1" connect="1" arrows="1" fold="1" page="0" pageScale="1" pageWidth="827" pageHeight="1169" math="0" shadow="0">
      <root>
        <mxCell id="0" />
        <mxCell id="1" parent="0" />
        <mxCell id="NLIxISZgfs955zVhp-9u-1" value="github test" style="whiteSpace=wrap;html=1;fontSize=16;" vertex="1" parent="1">
          <mxGeometry x="146" y="186" width="120" height="60" as="geometry" />
        </mxCell>
        <mxCell id="NLIxISZgfs955zVhp-9u-2" value="" style="ellipse;shape=cloud;whiteSpace=wrap;html=1;fontSize=16;" vertex="1" parent="1">
          <mxGeometry x="143" y="52" width="120" height="80" as="geometry" />
        </mxCell>
      </root>
    </mxGraphModel>
  </diagram>
</mxfile>
